# xmcd
#
# Track frame offsets:
#	150
#	15862
#	34772
#	51370
#	66467
#	83680
#	104085
#	120440
#	132485
#	146705
#
# Disc length: 2173 seconds
#
# Revision: 0
# Processed by: cddbd v1.5.1PL0 Copyright (c) Steve Scherf et al.
# Submitted via: dBpowerAMP V4.0
#
DISCID=8b087b0a
DTITLE=Rhyme and Reason - Living A Dream
DYEAR=2003
DGENRE=Gospel
TTITLE0=Like Old Times
TTITLE1=Living A Dream
TTITLE2=Help Me Lord
TTITLE3=Crystal Clear
TTITLE4=Can You Imagine This
TTITLE5=Run To The Father
TTITLE6=Once And For All
TTITLE7=God's Calling On You
TTITLE8=Every Mile
TTITLE9=Altar's Call
EXTD=
EXTT0=
EXTT1=
EXTT2=
EXTT3=
EXTT4=
EXTT5=
EXTT6=
EXTT7=
EXTT8=
EXTT9=
PLAYORDER=
